<?xml version="1.0" encoding="UTF-8"?>
<svg id="Ebene_1" xmlns="http://www.w3.org/2000/svg" version="1.1" viewBox="0 0 693.5 734.5">
  <!-- Generator: Adobe Illustrator 29.5.1, SVG Export Plug-In . SVG Version: 2.1.0 Build 141)  -->
  <defs>
    <style>
      .st0 {
        fill: #6f4cb8;
      }

      .st1 {
        fill: #78dcdd;
      }

      .st2 {
        fill: none;
        stroke: #6f4cb8;
        stroke-linecap: round;
        stroke-miterlimit: 10;
        stroke-width: 26px;
      }
    </style>
  </defs>
  <g>
    <g>
      <rect class="st1" x="218.9" y="326.1" width="253.1" height="83.6" rx="15" ry="15" transform="translate(179.5 -108.7) rotate(24)"/>
      <rect class="st1" x="176.3" y="421.8" width="253.1" height="83.6" rx="15" ry="15" transform="translate(214.7 -83.1) rotate(24)"/>
    </g>
    <rect class="st1" x="261.5" y="230.5" width="253.1" height="83.6" rx="15" ry="15" transform="translate(144.3 -134.3) rotate(24)"/>
  </g>
  <g>
    <path class="st0" d="M492.4,596.7c-30.2,13.9-62.6,22.5-95.6,25.6-7.6.7-15.3,1.7-22.9,2.4-9.3.7-19.4,1.1-27.9-3.5,6.1-.7,12-1.3,18-2.3,10.2-1.5,25.1-5.7,35.3-8.4,17.2-4.7,34.1-11,50-18.9,10.6-5.2,20.7-11.1,30.4-17.6,0,0,12.7,22.7,12.7,22.7h0Z"/>
    <path class="st2" d="M486,585.3c77-45.1,128.5-126.6,128.5-219.6,0-142-119.9-257.1-267.8-257.1S79,223.8,79,365.7s41.8,158.3,106.5,205.2c44.9,32.5,67.9,6.2,83.7-34"/>
  </g>
  <circle class="st0" cx="515" cy="165.4" r="50"/>
  <circle class="st0" cx="526.3" cy="556" r="50"/>
  <circle class="st0" cx="91.5" cy="444" r="50"/>
</svg>