<?xml version="1.0" encoding="UTF-8"?>
<svg id="Ebene_1" data-name="Ebene 1" xmlns="http://www.w3.org/2000/svg" viewBox="0 0 581.99 647.86">
  <circle cx="471.5" cy="66.83" r="50" fill="#6f4cb8"/>
  <circle cx="482.92" cy="457.45" r="50" transform="translate(-103.79 770.9) rotate(-71.56)" fill="#6f4cb8"/>
  <circle cx="50" cy="345.33" r="50" fill="#6f4cb8"/>
  <rect x="260.15" y="142.84" width="83.6" height="253.1" rx="15" ry="15" transform="translate(-66.97 435.66) rotate(-66)" fill="#78dcdd"/>
  <rect x="217.59" y="238.46" width="83.6" height="253.1" rx="15" ry="15" transform="translate(-179.57 453.51) rotate(-66)" fill="#78dcdd"/>
  <rect x="302.72" y="47.24" width="83.6" height="253.1" rx="15" ry="15" transform="translate(45.62 417.84) rotate(-66)" fill="#78dcdd"/>
  <path d="M447.27,498.19c-30.08,13.82-62.35,22.37-95.22,25.45-7.57.7-15.24,1.69-22.81,2.39-9.26.7-19.32,1.09-27.79-3.48,6.08-.7,11.95-1.29,17.93-2.29,10.16-1.49,25-5.67,35.16-8.35,17.13-4.67,33.97-10.94,49.8-18.79,10.56-5.17,20.62-11.04,30.28-17.5l12.65,22.57h0Z" fill="#6f4cb8"/>
  <path d="M441,486.96c76.7-44.84,127.99-125.87,127.99-218.34,0-141.18-119.43-255.62-266.75-255.62S35.5,127.43,35.5,268.62s41.64,157.39,106.08,204.02c44.72,32.31,67.63,6.16,83.37-33.8" fill="none" stroke="#6f4cb8" stroke-linecap="round" stroke-miterlimit="10" stroke-width="26"/>
  <g isolation="isolate">
    <path d="M59.81,561.23v85h-11.42v-85h-31.69v-9.93h74.8v9.93h-31.69Z" fill="#6f4cb8"/>
    <path d="M104.01,611.28c0-22.44,13.19-36.86,32.23-36.86s31.14,14.42,31.14,34.27v5.17h-51.95v3.26c0,12.38,8.3,21.35,21.49,21.35,9.38,0,16.46-4.62,20.13-12.24l8.02,5.44c-4.22,9.38-14.28,16.18-28.15,16.18-20.13,0-32.91-14.42-32.91-36.58ZM115.43,604.75v.95h40.26v-1.5c0-12.38-7.89-20.81-19.45-20.81s-20.81,9.11-20.81,21.35Z" fill="#6f4cb8"/>
    <path d="M189.83,646.23v-70.18h10.88v11.42h.54c2.99-6.94,8.43-13.06,19.99-13.06,14.69,0,24.34,9.79,24.34,26.79v45.02h-10.88v-43.11c0-12.78-5.85-19.04-16.59-19.04-8.7,0-17.41,4.22-17.41,13.46v48.69h-10.88Z" fill="#6f4cb8"/>
    <path d="M302.3,646.23c-10.61,0-15.5-6.66-15.5-16.05v-44.88h-23.39v-9.25h17.41c4.62,0,6.39-1.63,6.39-6.39v-18.36h10.47v24.75h31.96v9.25h-31.96v51.68h31.96v9.25h-27.34Z" fill="#6f4cb8"/>
    <path d="M350.17,636.98h20.54v-51.68h-20.54v-9.25h31.42v17.68h.68c2.72-9.25,8.98-17.68,23.66-17.68h9.79v10.88h-13.19c-13.74,0-20.94,8.84-20.94,19.72v30.33h27.2v9.25h-58.62v-9.25Z" fill="#6f4cb8"/>
    <path d="M435.71,636.98h25.3v-51.68h-25.3v-9.25h36.18v60.93h23.66v9.25h-59.84v-9.25ZM457.88,553.61v-2.18c0-3.94,2.31-6.94,8.57-6.94s8.57,2.99,8.57,6.94v2.18c0,3.94-2.31,6.94-8.57,6.94s-8.57-2.99-8.57-6.94Z" fill="#6f4cb8"/>
    <path d="M512,634.13l7.34-6.39c6.66,7.07,14.28,11.02,25.43,11.02s18.63-3.81,18.63-12.1c0-7.34-5.98-9.25-12.38-10.2l-11.02-1.63c-9.93-1.5-24.07-4.22-24.07-19.45,0-14.01,11.97-20.94,28.29-20.94,12.65,0,21.9,4.22,28.56,11.29l-7.07,6.66c-3.26-3.94-9.52-8.84-21.9-8.84-11.02,0-17.14,3.94-17.14,11.15s6.12,9.25,12.38,10.2l11.02,1.63c10.06,1.5,24.07,4.22,24.07,19.45,0,13.87-11.7,21.9-29.65,21.9-14.69,0-25.16-5.44-32.5-13.74Z" fill="#6f4cb8"/>
  </g>
</svg>